<?xml version="1.0" encoding="utf-8"?>
<!-- Generator: Adobe Illustrator 21.0.0, SVG Export Plug-In . SVG Version: 6.00 Build 0)  -->
<svg version="1.1" id="Calque_1" xmlns="http://www.w3.org/2000/svg" xmlns:xlink="http://www.w3.org/1999/xlink" x="0px" y="0px"
	 viewBox="0 0 500 500" style="enable-background:new 0 0 500 500;" xml:space="preserve">
<style type="text/css">
	.st0{fill:#FFFFFF;stroke:#FBB040;stroke-miterlimit:10;}
	.st1{fill:#FBB042;}
</style>
<path class="st0" d="M250.9,249.1"/>
<g>
	<path vector-effect="non-scaling-stroke" class="st1" d="M490.7,252.7c0,31.5-6.2,63-18.3,92.1c-12,29.1-29.9,55.8-52.2,78.1c-22.3,22.3-49,40.2-78.1,52.3
		c-29.1,12.1-60.6,18.3-92.2,18.3c-31.5,0-63-6.2-92.1-18.3c-29.1-12.1-55.8-29.9-78.1-52.2c-22.3-22.3-40.2-49-52.2-78.1
		c-12.1-29.1-18.3-60.6-18.3-92.1c0-31.5,6.2-63,18.3-92.2c12-29.1,29.9-55.8,52.2-78.1c22.3-22.3,49-40.2,78.1-52.2
		C187,18.1,218.5,11.9,250,11.9c31.5,0,63.1,6.2,92.2,18.3c29.1,12.1,55.8,30,78.1,52.3c22.3,22.3,40.1,49,52.2,78.1
		C484.5,189.6,490.7,221.2,490.7,252.7z M490.7,252.7c0-31.5-6.2-63-18.3-92.1c-12.1-29.1-29.9-55.8-52.2-78
		c-22.3-22.3-49-40.1-78.1-52.1C313,18.4,281.5,12.2,250,12.1c-31.5,0-63,6.2-92.1,18.3c-29.1,12-55.8,29.9-78,52.2
		c-22.3,22.3-40.1,48.9-52.2,78c-12.1,29.1-18.3,60.6-18.3,92.1c0,31.5,6.2,63,18.3,92.1c12,29.1,29.9,55.8,52.2,78.1
		c22.3,22.3,49,40.1,78.1,52.2c29.1,12.1,60.6,18.3,92.1,18.3c31.5,0,63-6.2,92.1-18.3c29.1-12,55.8-29.9,78.1-52.1
		c22.3-22.3,40.2-48.9,52.2-78C484.4,315.7,490.6,284.2,490.7,252.7z"/>
</g>
</svg>
